<svg width="128" height="128" viewBox="0 0 128 128" fill="none" xmlns="http://www.w3.org/2000/svg">
<path fill-rule="evenodd" clip-rule="evenodd" d="M30.5423 12.4133C29.888 13.321 29.3591 13.7868 28.3988 14.3268L26.415 15.4338C24.854 16.2912 24.4312 16.9856 24.4312 17.9543C24.4312 18.7301 25.0141 19.422 26.1773 19.422C26.2749 19.422 26.3975 19.4097 26.5076 19.38C26.5826 19.3602 26.6477 19.3108 26.6927 19.2441L28.5414 16.4939C28.9817 15.8366 30.0024 16.0145 30.1875 16.7806L30.5828 18.4064C30.6253 18.5794 30.6578 18.7795 30.6853 18.9772C30.7554 19.4888 30.3576 19.9459 29.8348 19.9459H26.365C24.246 19.9459 22.62 19.2811 21.6593 18.142L21.6543 18.147C20.6337 17.0375 19.7906 15.3967 19.7631 13.5337C18.3571 17.6874 14.4871 19.9483 8.99595 19.9483H0.452806C0.335223 19.9483 0.240135 19.8495 0.240135 19.7259V18.782C0.240135 17.8406 1.01319 17.0746 1.96883 17.0746C2.18392 17.0746 2.35657 16.904 2.35657 16.6916V3.7213C2.35657 3.50884 2.18392 3.33834 1.96883 3.33834H1.90376C0.850547 3.33834 0 2.49568 0 1.45789V0.343471C0 0.153168 0.1476 0 0.327701 0H9.34118C16.3008 0 20.3485 3.40751 20.3485 9.72333C20.3485 9.80651 20.3462 9.8874 20.344 9.96754C20.3429 10.0065 20.3418 10.0453 20.341 10.0841C21.2816 7.52915 23.3404 5.62398 26.35 5.62398C27.6958 5.62398 28.8816 6.19475 29.6921 7.03493C30.0799 7.36853 30.4052 7.74907 30.6503 8.17903C30.655 8.11794 31.9311 10.4869 30.5423 12.4133ZM8.50561 19.506H8.6007C12.013 19.506 14.2619 15.8218 14.2619 9.7555C14.2619 3.6892 12.3057 0.447285 8.83835 0.447285H8.50561C8.32551 0.447285 8.17791 0.600451 8.17791 0.790685V19.1626C8.17791 19.3529 8.32551 19.506 8.50561 19.506ZM27.2581 11.888C27.2581 8.63735 25.2682 7.01388 24.1298 7.0127C23.4426 7.01339 23.0453 7.62116 23.0453 8.64598C23.0453 10.1113 23.9634 12.098 25.1517 13.0518C26.4475 14.0946 27.2581 13.2075 27.2581 11.888Z" fill="white"/>
<path fill-rule="evenodd" clip-rule="evenodd" d="M77.4012 5.80368C77.4012 6.20898 76.9851 6.53757 76.4723 6.53757C75.9595 6.53757 75.5435 6.20898 75.5435 5.80368C75.5435 5.39837 75.9595 5.06982 76.4723 5.06982C76.9851 5.06982 77.4012 5.39837 77.4012 5.80368ZM77.179 5.80368C77.179 6.06705 76.9385 6.29223 76.6248 6.34857C76.5914 6.35462 76.5794 6.30868 76.6085 6.2906C76.6332 6.27523 76.6567 6.25859 76.6786 6.24052C76.8565 6.09559 76.915 5.85432 76.966 5.64418C76.976 5.60349 76.9855 5.56396 76.9959 5.52653C77.0054 5.49118 77.0464 5.4764 77.0695 5.50499C77.1388 5.59139 77.179 5.69383 77.179 5.80368ZM76.0997 6.17C76.1781 6.15766 76.2199 6.1063 76.1996 6.04547C76.1801 5.9861 76.1594 5.92694 76.1387 5.86778C76.1267 5.8331 76.1144 5.79838 76.1024 5.76362C76.0865 5.71644 76.0706 5.66926 76.0547 5.62204C76.0423 5.58506 76.03 5.54803 76.0172 5.51104C76.0097 5.48851 76.0021 5.46597 75.9941 5.44344C75.9874 5.42345 75.9631 5.41613 75.9472 5.43006C75.8341 5.52904 75.7656 5.66003 75.7656 5.80368C75.7656 5.96671 75.8492 6.20946 76.0997 6.17ZM76.413 5.2472C76.3851 5.24903 76.3668 5.27586 76.3736 5.30282C76.3903 5.36946 76.4082 5.43997 76.4158 5.46486C76.4301 5.51116 76.4444 5.55751 76.4584 5.60389C76.4687 5.63801 76.4791 5.67213 76.4898 5.70625C76.5428 5.87646 76.5794 5.63992 76.5997 5.50802C76.6049 5.47724 76.6085 5.45216 76.6117 5.4393C76.6168 5.41629 76.6276 5.35983 76.6371 5.30688C76.6415 5.28199 76.6252 5.25803 76.6001 5.2544C76.5587 5.24839 76.5161 5.24524 76.4723 5.24524C76.4524 5.24524 76.4325 5.24592 76.413 5.2472Z" fill="white"/>
<path d="M65.603 5.14526C65.1842 5.14526 64.8446 5.48464 64.8438 5.90352C64.8426 6.81984 64.8398 7.89589 64.8398 7.89589H64.0535C63.6346 7.89589 63.2954 8.23543 63.2954 8.65423V10.2515C63.2954 10.6704 63.6346 11.0099 64.0535 11.0099H64.8326C64.8326 11.0099 64.8346 13.3241 64.8446 14.4853C64.8278 15.6637 65.089 16.9519 66.076 17.7087C66.9913 18.4434 68.1631 18.4478 69.2838 18.452C69.4144 18.4525 69.5438 18.453 69.6724 18.4547C69.9248 18.4573 70.1259 18.2534 70.1259 18.0011V16.2032C70.1259 15.7843 69.7863 15.4448 69.3674 15.4448H69.0191C68.6707 15.4448 68.5449 15.1576 68.554 14.8341C68.56 14.3648 68.5564 13.8685 68.5528 13.366C68.5473 12.5678 68.5413 11.7544 68.5739 11.0099H69.3483C69.7612 11.0099 70.0976 10.68 70.0996 10.2673C70.1024 9.72268 70.1 9.11146 70.0972 8.64595C70.0944 8.23013 69.7564 7.89589 69.3408 7.89589H68.5532V5.90372C68.5532 5.48484 68.2136 5.14526 67.7948 5.14526H65.603Z" fill="white"/>
<path fill-rule="evenodd" clip-rule="evenodd" d="M46.4421 5.97779C43.4988 6.50114 42.4185 9.52108 42.4506 12.1566C42.416 14.5726 43.3373 17.4955 45.9405 18.2352C46.6201 18.4368 47.3138 18.4956 48.0231 18.4311C51.2001 18.196 52.5046 15.2827 52.565 12.478C52.7049 8.6845 50.7473 5.24784 46.4421 5.97779ZM47.5511 9.4983C45.0761 9.44205 45.1949 14.8273 47.5511 14.7733C49.8934 14.7197 49.8653 9.5509 47.5511 9.4983Z" fill="white"/>
<path d="M33.0159 7.50798C32.8747 7.02205 33.2395 6.53735 33.7456 6.53735H35.903C36.2595 6.53735 36.5675 6.78567 36.6459 7.13337C37.07 9.01303 37.5498 10.858 38.1221 12.704C38.5018 10.8678 38.8572 9.04321 39.1317 7.19225C39.1874 6.81729 39.5078 6.53735 39.8868 6.53735H41.7034C42.1557 6.53735 42.508 6.93 42.4625 7.38006C42.4424 7.57833 42.4224 7.77979 42.4022 7.98392L42.402 7.98567L42.402 7.98599C42.0483 11.5532 41.6142 15.932 39.2253 18.394C37.6595 20.0077 35.4471 20.0163 33.4912 19.9965C33.0723 19.9922 32.7329 19.6512 32.7329 19.2323V17.826C32.7329 17.4071 33.0724 17.076 33.4912 17.0703C34.5072 17.0567 35.6314 16.9006 35.3253 15.7242C34.7268 13.4246 33.5546 9.36152 33.0159 7.50798Z" fill="white"/>
<path d="M73.3331 15.5334C74.0864 15.5334 74.3723 15.1669 74.258 14.8619C74.1545 14.5862 73.9538 14.5011 73.6576 14.3758C73.6261 14.3625 73.5939 14.3487 73.5601 14.3342C73.2105 14.1832 72.9481 14.0675 72.7733 13.9869C72.5981 13.8964 72.3632 13.7554 72.0682 13.5642C71.784 13.3629 71.5654 13.1565 71.4125 12.9451C70.9753 12.3714 70.7567 11.6416 70.7567 10.7558C70.7567 9.86997 71.1119 9.12509 71.8222 8.52112C72.5436 7.9071 73.4836 7.6001 74.6422 7.6001C75.4293 7.6001 76.1559 7.6806 76.8228 7.84165C77.0501 7.89317 77.2576 7.96523 77.4316 8.03781C77.764 8.17641 77.8839 8.55977 77.7485 8.8935L77.2643 10.0864C77.1099 10.4673 76.6803 10.6555 76.2881 10.5326C75.8788 10.4045 75.3883 10.2726 75.1013 10.2726C74.555 10.2726 74.2815 10.4538 74.2815 10.8162C74.2815 11.0376 74.4837 11.2339 74.8882 11.405C74.9758 11.4453 75.1013 11.5006 75.2653 11.5711C75.4293 11.6416 75.6152 11.7271 75.8227 11.8278C76.0413 11.9184 76.271 12.0392 76.5115 12.1902C76.7627 12.3311 77.0306 12.5223 77.3145 12.7639C77.8938 13.2672 78.1837 13.9316 78.1837 14.757C78.1837 15.8341 77.8612 16.7148 77.2162 17.3993C76.5716 18.0838 75.5766 18.4361 74.2325 18.4563H71.5148C71.096 18.4563 70.7563 18.1167 70.7563 17.6978V16.3218C70.7563 15.9111 71.0832 15.575 71.4937 15.5651C72.0873 15.5507 72.8928 15.5334 73.3331 15.5334Z" fill="white"/>
<path fill-rule="evenodd" clip-rule="evenodd" d="M52.979 12.1566C52.9468 9.52108 54.0271 6.50114 56.9704 5.97779C61.2756 5.24784 63.2332 8.6845 63.0935 12.478C63.033 15.2827 61.7283 18.196 58.5515 18.4311C57.8421 18.4956 57.1484 18.4368 56.4688 18.2352C53.8657 17.4955 52.9443 14.5726 52.979 12.1566ZM58.1068 9.4983C55.6524 9.44141 55.7702 14.8888 58.1068 14.8342C60.4295 14.7799 60.4016 9.55149 58.1068 9.4983Z" fill="white"/>
</svg>
