<svg width="26" height="26" viewBox="0 0 26 26" fill="none" xmlns="http://www.w3.org/2000/svg">
<path d="M9.20832 18.6875L8.12498 20.8542C6.74509 20.2792 5.31617 19.7042 3.79707 18.7146C3.26732 18.3694 2.94611 17.7829 2.93338 17.1508C2.8673 13.9057 3.62861 10.6432 5.55627 7.19388C5.80855 6.7424 6.22888 6.41144 6.71638 6.23838C7.87934 5.82563 8.66882 5.50658 10.0208 5.28125L10.8333 6.77083C10.8333 6.77083 11.6458 6.5 13 6.5C14.3542 6.5 15.1667 6.77083 15.1667 6.77083L15.9792 5.28125C17.3312 5.50658 18.1206 5.82563 19.2836 6.23838C19.7711 6.41144 20.1914 6.7424 20.4437 7.19388C22.3714 10.6432 23.1327 13.9057 23.0667 17.1508C23.0539 17.7829 22.7327 18.3694 22.2029 18.7146C20.6838 19.7042 19.255 20.2792 17.875 20.8542L16.7917 18.6875M7.58332 17.6042C7.58332 17.6042 10.2917 18.9583 13 18.9583C15.7083 18.9583 18.4167 17.6042 18.4167 17.6042" stroke="#D9D9D9" stroke-linecap="round" stroke-linejoin="round"/>
<path d="M9.61466 15.7083C10.5869 15.7083 11.3751 14.7989 11.3751 13.6771C11.3751 12.5552 10.5869 11.6458 9.61466 11.6458C8.64241 11.6458 7.85425 12.5552 7.85425 13.6771C7.85425 14.7989 8.64241 15.7083 9.61466 15.7083Z" fill="#D9D9D9"/>
<path d="M16.3854 15.7083C17.3577 15.7083 18.1458 14.7989 18.1458 13.6771C18.1458 12.5552 17.3577 11.6458 16.3854 11.6458C15.4132 11.6458 14.625 12.5552 14.625 13.6771C14.625 14.7989 15.4132 15.7083 16.3854 15.7083Z" fill="#D9D9D9"/>
</svg>
