<svg width="26" height="26" viewBox="0 0 26 26" fill="none" xmlns="http://www.w3.org/2000/svg">
<path d="M20.2999 20.8V21.3H20.7999C21.0121 21.3 21.2156 21.3843 21.3656 21.5343C21.5156 21.6843 21.5999 21.8878 21.5999 22.1C21.5999 22.3121 21.5156 22.5156 21.3656 22.6657C21.2156 22.8157 21.0121 22.9 20.7999 22.9H16.8999C16.6877 22.9 16.4842 22.8157 16.3342 22.6657C16.1842 22.5156 16.0999 22.3121 16.0999 22.1V19.5C16.0999 19.0226 15.9103 18.5647 15.5727 18.2272C15.2351 17.8896 14.7773 17.7 14.2999 17.7H11.6999C11.2225 17.7 10.7647 17.8896 10.4271 18.2272C10.0895 18.5647 9.8999 19.0226 9.8999 19.5V22.1C9.8999 22.3121 9.81562 22.5156 9.66559 22.6657C9.51556 22.8157 9.31208 22.9 9.0999 22.9H5.1999C4.98773 22.9 4.78425 22.8157 4.63422 22.6657C4.48419 22.5156 4.3999 22.3121 4.3999 22.1C4.3999 21.8878 4.48419 21.6843 4.63422 21.5343C4.78425 21.3843 4.98773 21.3 5.1999 21.3H5.6999V20.8V5.19998C5.6999 4.64302 5.92115 4.10888 6.31498 3.71505C6.7088 3.32122 7.24295 3.09998 7.7999 3.09998H18.1999C18.7569 3.09998 19.291 3.32122 19.6848 3.71505C20.0787 4.10888 20.2999 4.64302 20.2999 5.19998V20.8ZM9.0999 5.99998H8.5999V6.49998V9.09998V9.59998H9.0999H11.6999H12.1999V9.09998V6.49998V5.99998H11.6999H9.0999ZM12.1999 11.7V11.2H11.6999H9.0999H8.5999V11.7V14.3V14.8H9.0999H11.6999H12.1999V14.3V11.7ZM14.2999 5.99998H13.7999V6.49998V9.09998V9.59998H14.2999H16.8999H17.3999V9.09998V6.49998V5.99998H16.8999H14.2999ZM17.3999 11.7V11.2H16.8999H14.2999H13.7999V11.7V14.3V14.8H14.2999H16.8999H17.3999V14.3V11.7Z" fill="#D9D9D9" stroke="white"/>
</svg>
