<svg width="26" height="26" viewBox="0 0 26 26" fill="none" xmlns="http://www.w3.org/2000/svg">
<path d="M7.58333 8.66671H18.4167M7.58333 13H11.9167M13 21.6667L8.66667 17.3334H5.41667C4.84203 17.3334 4.29093 17.1051 3.8846 16.6988C3.47827 16.2924 3.25 15.7413 3.25 15.1667V6.50004C3.25 5.9254 3.47827 5.3743 3.8846 4.96798C4.29093 4.56165 4.84203 4.33337 5.41667 4.33337H20.5833C21.158 4.33337 21.7091 4.56165 22.1154 4.96798C22.5217 5.3743 22.75 5.9254 22.75 6.50004V15.1667C22.75 15.7413 22.5217 16.2924 22.1154 16.6988C21.7091 17.1051 21.158 17.3334 20.5833 17.3334H17.3333L13 21.6667Z" stroke="#D9D9D9" stroke-width="2" stroke-linecap="round" stroke-linejoin="round"/>
</svg>
